#!OML:ASF I:\Actors\actors\Patient Classification 2\Patient 1\Session 1\actor1.ASF
:FULLY-SPECIFIED
:DEGREES
318
root -0.875541 18.7853 5.86644 1.63043 19.1348 -2.95814
lowerback 15.1329 4.2381 6.13013
upperback 1.12508 6.87464 2.84851
thorax -6.8966 3.20596 -1.81022
lowerneck 0.588678 2.16884 1.38005
upperneck -5.06299 2.50766 -11.4299
head -1.55484 1.47176 -4.03704
rclavicle -4.1546e-014 -4.45278e-014
rhumerus 32.6269 21.4615 -55.8455
rradius 124.601
rwrist -6.04882
rhand -36.5578 -26.7762
rfingers 7.12502
rthumb -9.64797 -56.5352
lclavicle -4.1546e-014 -4.45278e-014
lhumerus -6.78401 -51.2632 88.1089
lradius 117.283
lwrist 15.0518
lhand -26.0847 -65.3877
lfingers 7.12502
lthumb 0.463952 -35.4085
rfemur 0 0 0
rtibia 0
rfoot 0 0
rtoes 0
lfemur -13.2437 -10.8039 -12.5481
ltibia 27.069
lfoot -17.0499 2.34243
ltoes -57.3041
319
root -0.870242 18.7865 5.86757 1.60021 19.1256 -3.0387
lowerback 15.2706 4.21425 6.12617
upperback 1.09488 6.85692 2.85724
thorax -7.00843 3.19219 -1.80929
lowerneck 0.487714 2.1289 1.14945
upperneck -5.00467 2.46025 -11.3201
head -1.524 1.44569 -3.94942
rclavicle 2.46493e-014 -2.06736e-014
rhumerus 32.6718 21.4324 -55.8764
rradius 124.615
rwrist -6.08733
rhand -36.4296 -26.6287
rfingers 7.12502
rthumb -9.52434 -56.3934
lclavicle 2.46493e-014 -2.06736e-014
lhumerus -6.97347 -51.1494 88.212
lradius 117.314
lwrist 15.0735
lhand -26.1117 -65.2098
lfingers 7.12502
lthumb 0.437875 -35.2305
rfemur 0 0 0
rtibia 0
rfoot 0 0
rtoes 0
lfemur -13.2934 -10.6853 -12.4846
ltibia 27.1596
lfoot -17.0114 2.2893
ltoes -57.3522
320
root -0.866713 18.7908 5.86526 1.60972 19.1069 -3.16176
lowerback 15.4661 4.18078 6.19342
upperback 0.999431 6.84555 2.83599
thorax -7.21059 3.17362 -1.88816
lowerneck 0.429825 2.05326 1.09492
upperneck -4.94899 2.36269 -11.338
head -1.50272 1.39486 -3.94214
rclavicle 6.10269e-014 3.65764e-014
rhumerus 32.6731 21.3677 -55.8912
rradius 124.667
rwrist -6.06163
rhand -36.3393 -26.8209
rfingers 7.12502
rthumb -9.43722 -56.5896
lclavicle 6.10269e-014 3.65764e-014
lhumerus -7.29669 -51.0761 88.3366
lradius 117.383
lwrist 15.0945
lhand -26.0698 -65.2035
lfingers 7.12502
lthumb 0.478299 -35.2243
rfemur 0 0 0
rtibia 0
rfoot 0 0
rtoes 0
lfemur -13.4222 -10.5858 -12.3588
ltibia 27.2454
lfoot -16.9342 2.31287
ltoes -57.3344
321
root -0.859411 18.7948 5.86648 1.67261 19.0613 -3.16627
lowerback 15.2805 4.18943 6.08404
upperback 1.11281 6.81914 2.88773
thorax -7.00584 3.17605 -1.74701
lowerneck 0.317555 1.9367 1.03973
upperneck -5.02743 2.19276 -11.5915
head -1.51923 1.31656 -4.02042
rclavicle 5.18828e-014 6.36111e-015
rhumerus 32.9645 21.1451 -55.5658
rradius 124.749
rwrist -6.02165
rhand -36.2702 -26.998
rfingers 7.12502
rthumb -9.37057 -56.7697
lclavicle 5.18828e-014 6.36111e-015
lhumerus -7.20829 -50.9633 88.3315
lradius 117.376
lwrist 15.1341
lhand -25.9827 -65.1062
lfingers 7.12502
lthumb 0.562454 -35.1272
rfemur 0 0 0
rtibia 0
rfoot 0 0
rtoes 0
lfemur -13.5217 -10.5184 -12.3855
ltibia 27.3172
lfoot -16.9037 2.39699
ltoes -57.3647
322
root -0.848344 18.7957 5.87116 1.73735 19.0067 -3.09261
lowerback 15.1291 4.18366 5.95091
upperback 1.20517 6.77179 2.90678
thorax -6.84279 3.16591 -1.6276
lowerneck 0.202984 1.79628 0.836365
upperneck -5.09319 1.99387 -11.7014
head -1.53548 1.22335 -4.01839
rclavicle 6.16232e-015 1.59028e-015
rhumerus 33.1871 20.9038 -55.2802
rradius 124.876
rwrist -5.80907
rhand -36.2159 -27.1657
rfingers 7.12502
rthumb -9.3181 -56.9398
lclavicle 6.16232e-015 1.59028e-015
lhumerus -7.25576 -50.8998 88.3796
lradius 117.385
lwrist 15.1293
lhand -25.9589 -64.9065
lfingers 7.12502
lthumb 0.585457 -34.9276
rfemur 0 0 0
rtibia 0
rfoot 0 0
rtoes 0
lfemur -13.5422 -10.5177 -12.5266
ltibia 27.3656
lfoot -16.9517 2.53738
ltoes -57.419
323
root -0.837897 18.7969 5.8734 1.80175 18.9538 -3.06979
lowerback 15.0686 4.15239 5.8542
upperback 1.23022 6.70965 2.93
thorax -6.7999 3.14126 -1.53223
lowerneck 0.119238 1.62737 0.531697
upperneck -5.14898 1.75965 -11.6668
head -1.55746 1.11208 -3.94525
rclavicle -3.97569e-016 1.90833e-014
rhumerus 33.37 20.6312 -55.0719
rradius 124.998
rwrist -5.5117
rhand -36.2474 -27.5594
rfingers 7.12502
rthumb -9.34851 -57.3321
lclavicle -3.97569e-016 1.90833e-014
lhumerus -7.54784 -50.8342 88.5412
lradius 117.462
lwrist 15.0259
lhand -25.9295 -64.8145
lfingers 7.12502
lthumb 0.613847 -34.8357
rfemur 0 0 0
rtibia 0
rfoot 0 0
rtoes 0
lfemur -13.5742 -10.6068 -12.6051
ltibia 27.3837
lfoot -17.0011 2.76494
ltoes -57.3396
324
root -0.827982 18.8003 5.87364 1.90444 18.8864 -3.04521
lowerback 15.0215 4.1087 5.75813
upperback 1.22843 6.63287 2.93691
thorax -6.79189 3.10734 -1.45405
lowerneck 0.00984714 1.46347 0.267456
upperneck -5.14428 1.54039 -11.6079
head -1.55298 1.00373 -3.86985
rclavicle -3.10104e-014 -5.08889e-014
rhumerus 33.5764 20.2452 -54.9017
rradius 125.094
rwrist -5.31978
rhand -36.1957 -28.0956
rfingers 7.12502
rthumb -9.29859 -57.8705
lclavicle -3.10104e-014 -5.08889e-014
lhumerus -7.89384 -50.7535 88.6994
lradius 117.546
lwrist 14.9171
lhand -25.8556 -64.7295
lfingers 7.12502
lthumb 0.685235 -34.7509
rfemur 0 0 0
rtibia 0
rfoot 0 0
rtoes 0
lfemur -13.6468 -10.676 -12.6656
ltibia 27.3798
lfoot -17.0019 2.94166
ltoes -57.179
325
root -0.818437 18.8047 5.87265 2.03581 18.7982 -3.05134
lowerback 14.9682 4.06442 5.71532
upperback 1.205 6.56374 2.92752
thorax -6.7951 3.07449 -1.42405
lowerneck -0.109503 1.28462 0.0524634
upperneck -5.10339 1.30678 -11.5175
head -1.53492 0.884675 -3.79199
rclavicle 5.96354e-016 -6.36111e-015
rhumerus 33.6852 19.7703 -54.7711
rradius 125.205
rwrist -4.97812
rhand -35.9402 -28.2358
rfingers 7.12502
rthumb -9.05211 -58.0216
lclavicle 5.96354e-016 -6.36111e-015
lhumerus -8.19352 -50.718 88.804
lradius 117.611
lwrist 14.8788
lhand -25.7694 -64.607
lfingers 7.12502
lthumb 0.768452 -34.6287
rfemur 0 0 0
rtibia 0
rfoot 0 0
rtoes 0
lfemur -13.7642 -10.5892 -12.674
ltibia 27.3711
lfoot -16.9639 2.9471
ltoes -57.1143
326
root -0.808972 18.8081 5.87126 2.12482 18.6848 -3.1294
lowerback 14.9201 4.00751 5.70464
upperback 1.18353 6.48684 2.95811
thorax -6.80085 3.03751 -1.36851
lowerneck -0.174602 1.05707 -0.0710499
upperneck -5.08537 1.00034 -11.5561
head -1.53808 0.732459 -3.7784
rclavicle -8.05078e-014 3.57812e-014
rhumerus 33.6841 19.37 -54.6563
rradius 125.292
rwrist -4.39027
rhand -35.8176 -27.735
rfingers 7.12502
rthumb -8.93384 -57.5258
lclavicle -8.05078e-014 3.57812e-014
lhumerus -8.55473 -50.6389 88.9774
lradius 117.672
lwrist 14.8202
lhand -25.6749 -64.5179
lfingers 7.12502
lthumb 0.859724 -34.5398
rfemur 0 0 0
rtibia 0
rfoot 0 0
rtoes 0
lfemur -13.8612 -10.4269 -12.6077
ltibia 27.3645
lfoot -16.9499 2.87726
ltoes -57.0656
327
root -0.798194 18.81 5.86984 2.18596 18.541 -3.19655
lowerback 14.7926 3.93369 5.6465
upperback 1.24902 6.37144 3.03517
thorax -6.68158 2.99003 -1.2206
lowerneck -0.250941 0.81673 -0.262473
upperneck -5.1712 0.664749 -11.6542
head -1.57506 0.572457 -3.7746
rclavicle 8.64713e-014 1.11319e-014
rhumerus 33.8023 19.0297 -54.3911
rradius 125.364
rwrist -3.92438
rhand -36.1395 -27.791
rfingers 7.12502
rthumb -9.24443 -57.5683
lclavicle 8.64713e-014 1.11319e-014
lhumerus -8.84558 -50.4385 89.1002
lradius 117.754
lwrist 14.7138
lhand -25.649 -64.4628
lfingers 7.12502
lthumb 0.884726 -34.4849
rfemur 0 0 0
rtibia 0
rfoot 0 0
rtoes 0
lfemur -13.9118 -10.3643 -12.5658
ltibia 27.3566
lfoot -16.9822 2.9075
ltoes -56.9555
328
root -0.787322 18.812 5.86848 2.25759 18.3435 -3.2629
lowerback 15.0559 3.81347 5.69119
upperback 1.05636 6.24942 2.98199
thorax -7.03087 2.91224 -1.30724
lowerneck -0.276166 0.611311 -0.463403
upperneck -5.08378 0.398487 -11.4987
head -1.55845 0.435714 -3.67686
rclavicle -5.96354e-014 -1.74931e-014
rhumerus 33.6127 18.7928 -54.359
rradius 125.49
rwrist -3.95568
rhand -36.5348 -28.2039
rfingers 7.12502
rthumb -9.62585 -57.964
lclavicle -5.96354e-014 -1.74931e-014
lhumerus -9.72166 -50.2761 89.4033
lradius 117.889
lwrist 14.5465
lhand -25.9367 -64.5296
lfingers 7.12502
lthumb 0.606856 -34.5508
rfemur 0 0 0
rtibia 0
rfoot 0 0
rtoes 0
lfemur -13.9566 -10.3268 -12.524
ltibia 27.3463
lfoot -17.0333 3.07356
ltoes -56.9091
329
root -0.776826 18.8138 5.8681 2.34573 18.0558 -3.29403
lowerback 15.1404 3.72418 5.63649
upperback 0.95655 6.13221 2.94322
thorax -7.19322 2.84878 -1.30612
lowerneck -0.380864 0.383439 -0.620493
upperneck -4.96153 0.109547 -11.3339
head -1.51666 0.282684 -3.58304
rclavicle 1.21259e-014 3.18055e-015
rhumerus 33.5659 18.3912 -54.3204
rradius 125.591
rwrist -4.67258
rhand -36.7337 -27.595
rfingers 7.12502
rthumb -9.81774 -57.3462
lclavicle 1.21259e-014 3.18055e-015
lhumerus -10.3594 -50.0514 89.5929
lradius 117.942
lwrist 14.327
lhand -26.5679 -64.7006
lfingers 7.12502
lthumb -0.00273792 -34.7209
rfemur 0 0 0
rtibia 0
rfoot 0 0
rtoes 0
lfemur -13.9752 -10.2687 -12.523
ltibia 27.3331
lfoot -17.131 3.34957
ltoes -56.9272
330
root -0.76671 18.8163 5.86693 2.45172 17.7052 -3.23069
lowerback 15.1145 3.67873 5.44199
upperback 0.957633 6.03512 2.92156
thorax -7.20013 2.80741 -1.20106
lowerneck -0.586321 0.14132 -0.857922
upperneck -4.8203 -0.191078 -11.1456
head -1.45001 0.12144 -3.46544
rclavicle 8.36883e-014 9.54166e-015
rhumerus 33.5916 18.2641 -53.9908
rradius 125.728
rwrist -3.85244
rhand -37.0529 -29.2873
rfingers 7.12502
rthumb -10.1256 -59.0237
lclavicle 8.36883e-014 9.54166e-015
lhumerus -10.7827 -49.7994 89.6905
lradius 117.978
lwrist 14.2382
lhand -26.8965 -64.6837
lfingers 7.12502
lthumb -0.320085 -34.7042
rfemur 0 0 0
rtibia 0
rfoot 0 0
rtoes 0
lfemur -13.9687 -10.1149 -12.6253
ltibia 27.3149
lfoot -17.2109 3.56104
ltoes -56.9621
